# File created by Blade
# Date/Time:  Tue Jan 27 20:07:51 2015
# Frame Rate: 120.000 fps
#------------------------------------------------------
:FULLY-SPECIFIED
:DEGREES
2051
root 6.368729 32.265406 -4.613004 -2.793333 -19.856938 -4.880354
Spine 3.996138 10.788419 2.563400
Head 25.587098 -9.678065 -0.643516
LeftShoulder -16.506495 3.002571 27.449975
LeftArm -11.410307 -23.910037 -75.256947
LeftForeArm -16.918252 -0.000000 116.832436
LeftHand 9.315128 0.000000 -4.981537
LeftHandThumb1 -26.253704 0.000000 33.147579
RightShoulder -18.283612 -18.410175 -22.383966
RightArm 10.210499 -17.206631 87.857519
RightForeArm -16.149123 -0.000000 21.163959
RightHand 18.239377 -0.000000 0.828345
RightHandThumb1 -24.326973 -0.000000 -32.862282
LeftUpLeg 10.524027 3.562093 -5.729829
LeftLeg -2.966613 -0.000000 0.000000
LeftFoot -15.802355 15.908165 -15.116547
LeftToeBase 21.794171 -0.000000 -0.000000
RightUpLeg -44.107242 -44.272901 -3.994267
RightLeg 84.505784 -0.000000 -0.000000
RightFoot 20.696606 -32.069902 17.109730
RightToeBase 19.465445 -0.000000 -0.000000
2052
root 6.374021 32.264535 -4.611026 -2.780306 -19.848388 -4.890102
Spine 3.984668 10.789278 2.572842
Head 25.563137 -9.651296 -0.623716
LeftShoulder -16.496963 2.952951 27.450385
LeftArm -11.422192 -23.963950 -75.241073
LeftForeArm -16.826346 -0.000000 116.767961
LeftHand 9.287687 -0.000000 -5.190400
LeftHandThumb1 -26.253704 0.000000 33.147579
RightShoulder -18.292067 -18.409037 -22.370857
RightArm 10.227370 -17.206795 87.843340
RightForeArm -16.239519 -0.000000 21.173132
RightHand 18.359191 -0.000000 0.271951
RightHandThumb1 -24.326973 -0.000000 -32.862282
LeftUpLeg 10.513043 3.584010 -5.728524
LeftLeg -2.971417 -0.000000 0.000000
LeftFoot -15.862834 15.894878 -15.226861
LeftToeBase 21.947096 -0.000000 -0.000000
RightUpLeg -44.204148 -44.495444 -3.844792
RightLeg 84.499440 -0.000000 -0.000000
RightFoot 20.718358 -32.069029 17.077853
RightToeBase 19.541841 -0.000000 -0.000000
2053
root 6.380216 32.263734 -4.608136 -2.778519 -19.844042 -4.893584
Spine 3.980006 10.803208 2.579447
Head 25.546847 -9.629905 -0.600611
LeftShoulder -16.473438 2.885616 27.454965
LeftArm -11.432766 -24.020285 -75.250985
LeftForeArm -16.788129 -0.000000 116.700968
LeftHand 9.361873 -0.000000 -5.090586
LeftHandThumb1 -26.253704 0.000000 33.147579
RightShoulder -18.292857 -18.431939 -22.367358
RightArm 10.249129 -17.156889 87.840350
RightForeArm -16.326343 -0.000000 21.211360
RightHand 18.129467 -0.000000 1.013606
RightHandThumb1 -24.326973 -0.000000 -32.862282
LeftUpLeg 10.496703 3.549937 -5.740901
LeftLeg -2.937247 -0.000000 0.000000
LeftFoot -15.898404 15.914945 -15.259866
LeftToeBase 21.968686 -0.000000 -0.000000
RightUpLeg -44.274405 -44.682724 -3.733554
RightLeg 84.487316 -0.000000 -0.000000
RightFoot 20.776127 -32.033234 17.016823
RightToeBase 19.578428 -0.000000 -0.000000
2054
root 6.386041 32.262983 -4.606055 -2.764352 -19.865405 -4.897035
Spine 3.965901 10.837946 2.578491
Head 25.516404 -9.597939 -0.561372
LeftShoulder -16.446304 2.839562 27.472490
LeftArm -11.453521 -24.078753 -75.262204
LeftForeArm -16.775845 -0.000000 116.639918
LeftHand 9.385788 0.000000 -5.056546
LeftHandThumb1 -26.253704 0.000000 33.147579
RightShoulder -18.316259 -18.472058 -22.334545
RightArm 10.334743 -17.223817 87.796157
RightForeArm -16.342077 0.000000 21.171056
RightHand 18.236237 -0.000000 0.519746
RightHandThumb1 -24.326973 -0.000000 -32.862282
LeftUpLeg 10.470286 3.504829 -5.758094
LeftLeg -2.907281 -0.000000 0.000000
LeftFoot -15.947122 15.970974 -15.281275
LeftToeBase 22.023476 -0.000000 -0.000000
RightUpLeg -44.366962 -44.826831 -3.606117
RightLeg 84.464263 -0.000000 -0.000000
RightFoot 20.862302 -31.969698 16.907457
RightToeBase 19.348279 -0.000000 -0.000000
2055
root 6.391254 32.263072 -4.602563 -2.760939 -19.896622 -4.901252
Spine 3.956412 10.877236 2.578530
Head 25.501022 -9.579196 -0.525648
LeftShoulder -16.410239 2.842091 27.495488
LeftArm -11.445619 -24.155641 -75.297864
LeftForeArm -16.716926 -0.000000 116.579541
LeftHand 9.406363 -0.000000 -4.969810
LeftHandThumb1 -26.253704 0.000000 33.147579
RightShoulder -18.305131 -18.463202 -22.336890
RightArm 10.347458 -17.247628 87.792337
RightForeArm -16.315496 -0.000000 21.157748
RightHand 18.269170 -0.000000 0.522235
RightHandThumb1 -24.326973 -0.000000 -32.862282
LeftUpLeg 10.460429 3.483289 -5.769911
LeftLeg -2.880910 -0.000000 0.000000
LeftFoot -15.966642 15.986001 -15.336175
LeftToeBase 22.368753 -0.000000 -0.000000
RightUpLeg -44.433377 -44.942333 -3.495684
RightLeg 84.440701 -0.000000 -0.000000
RightFoot 20.676030 -31.989357 17.092824
RightToeBase 19.693390 -0.000000 -0.000000
2056
root 6.394555 32.263093 -4.599431 -2.751078 -19.945621 -4.922436
Spine 3.952318 10.947031 2.589459
Head 25.466045 -9.575944 -0.469923
LeftShoulder -16.360000 2.802621 27.530251
LeftArm -11.489109 -24.213378 -75.306230
LeftForeArm -16.718427 -0.000000 116.510654
LeftHand 9.641078 -0.000000 -4.652401
LeftHandThumb1 -26.253704 0.000000 33.147579
RightShoulder -18.334419 -18.461155 -22.321623
RightArm 10.372353 -17.246153 87.775573
RightForeArm -16.364281 -0.000000 21.154763
RightHand 18.257452 -0.000000 1.112423
RightHandThumb1 -24.326973 -0.000000 -32.862282
LeftUpLeg 10.455344 3.459746 -5.766665
LeftLeg -2.865096 -0.000000 0.000000
LeftFoot -16.012054 16.055452 -15.338047
LeftToeBase 22.002358 -0.000000 -0.000000
RightUpLeg -44.491845 -44.993775 -3.381270
RightLeg 84.405173 -0.000000 -0.000000
RightFoot 20.647341 -32.025734 17.150451
RightToeBase 19.489166 -0.000000 -0.000000
